<mxfile host="app.diagrams.net" modified="2024-02-02T23:47:57.470Z" agent="Mozilla/5.0 (Windows NT 10.0; Win64; x64) AppleWebKit/537.36 (KHTML, like Gecko) Chrome/121.0.0.0 Safari/537.36" etag="7MtQYms12CuETASc8TCY" version="23.1.1" type="github">
  <diagram id="6a731a19-8d31-9384-78a2-239565b7b9f0" name="Page-1">
    <mxGraphModel dx="1354" dy="778" grid="1" gridSize="10" guides="1" tooltips="1" connect="1" arrows="1" fold="1" page="1" pageScale="1" pageWidth="827" pageHeight="1169" background="none" math="0" shadow="0">
      <root>
        <mxCell id="0" />
        <mxCell id="1" parent="0" />
        <mxCell id="2095" value="" style="rounded=1;whiteSpace=wrap;html=1;strokeColor=none;fillColor=#BAC8D3;fontSize=24;fontColor=#23445D;align=center;opacity=60;" parent="1" vertex="1">
          <mxGeometry x="20" y="150" width="690" height="200" as="geometry" />
        </mxCell>
        <mxCell id="2099" value="" style="shape=mxgraph.cisco.servers.file_server;html=1;dashed=0;fillColor=#10739E;strokeColor=#ffffff;strokeWidth=2;verticalLabelPosition=bottom;verticalAlign=top;fontFamily=Helvetica;fontSize=36;fontColor=#FFB366" parent="1" vertex="1">
          <mxGeometry x="306" y="219" width="43" height="58" as="geometry" />
        </mxCell>
        <mxCell id="_wUpT-qRUACcPQjbF1xC-2259" style="edgeStyle=orthogonalEdgeStyle;rounded=0;orthogonalLoop=1;jettySize=auto;html=1;" edge="1" parent="1" source="2152">
          <mxGeometry relative="1" as="geometry">
            <mxPoint x="1340" y="369.9999999999998" as="targetPoint" />
          </mxGeometry>
        </mxCell>
        <mxCell id="2152" value="" style="line;html=1;strokeColor=#0209CF;fillColor=#0000FF;fontColor=#ffffff;fillStyle=solid;" parent="1" vertex="1">
          <mxGeometry x="43" y="325" width="737" height="10" as="geometry" />
        </mxCell>
        <mxCell id="2226" value="&lt;font color=&quot;#23445d&quot;&gt;Management and core servers&lt;/font&gt;" style="rounded=1;whiteSpace=wrap;html=1;strokeColor=none;fillColor=none;fontSize=14;fontColor=#742B21;align=center;fontStyle=1" parent="1" vertex="1">
          <mxGeometry x="253" y="162" width="225" height="19" as="geometry" />
        </mxCell>
        <mxCell id="_wUpT-qRUACcPQjbF1xC-2260" value="" style="line;html=1;strokeColor=#006EAF;fillColor=#1ba1e2;fontColor=#ffffff;" vertex="1" parent="1">
          <mxGeometry x="850" y="325" width="737" height="10" as="geometry" />
        </mxCell>
        <mxCell id="_wUpT-qRUACcPQjbF1xC-2261" value="" style="shape=mxgraph.cisco.servers.file_server;html=1;dashed=0;fillColor=#10739E;strokeColor=#ffffff;strokeWidth=2;verticalLabelPosition=bottom;verticalAlign=top;fontFamily=Helvetica;fontSize=36;fontColor=#FFB366" vertex="1" parent="1">
          <mxGeometry x="780" y="270" width="116" height="111" as="geometry" />
        </mxCell>
        <mxCell id="_wUpT-qRUACcPQjbF1xC-2262" value="" style="line;html=1;strokeColor=#04F604;fillColor=default;fontColor=#ffffff;" vertex="1" parent="1">
          <mxGeometry x="210" y="338" width="580" height="10" as="geometry" />
        </mxCell>
        <mxCell id="_wUpT-qRUACcPQjbF1xC-2263" value="" style="shape=mxgraph.cisco.servers.file_server;html=1;dashed=0;fillColor=#10739E;strokeColor=#ffffff;strokeWidth=2;verticalLabelPosition=bottom;verticalAlign=top;fontFamily=Helvetica;fontSize=36;fontColor=#FFB366" vertex="1" parent="1">
          <mxGeometry x="166" y="335" width="43" height="58" as="geometry" />
        </mxCell>
        <mxCell id="_wUpT-qRUACcPQjbF1xC-2264" value="" style="line;html=1;strokeColor=#006EAF;fillColor=#1ba1e2;fontColor=#ffffff;" vertex="1" parent="1">
          <mxGeometry x="70" y="454" width="580" height="10" as="geometry" />
        </mxCell>
      </root>
    </mxGraphModel>
  </diagram>
</mxfile>
